<svg xmlns="http://www.w3.org/2000/svg" width="24" height="24" viewBox="0 0 24 24"><path id="app-icon-left-bracket" data-name="Left Rounded Bracket" fill="none" stroke="#3b82f6" stroke-width="1.95" stroke-linecap="round" stroke-linejoin="round" d="M 9.25 3.985 C 8.68 5.045 7.95 5.775 7.15 6.745 C 5.8 8.395 4.9 9.995 4.9 11.945 C 4.9 13.745 5.78 15.045 7.02 16.615 C 7.85 17.675 8.55 18.715 9.05 19.985" /><path id="app-icon-right-bracket" data-name="Right Filled Bracket" fill="none" stroke="#3b82f6" stroke-width="1.95" stroke-linecap="round" stroke-linejoin="round" d="M 14.75 3.988 L 19.097 11.953 L 14.75 19.988" /><path id="app-icon-pen-stem-shape" data-name="Pointed Pen Stem" fill="#3b82f6" stroke="none" stroke-width="2" d="M 11.36 12.95 C 11.45 14.9 11.56 17.25 11.83 20.25 L 12 21.25 L 12.17 20.25 C 12.44 17.25 12.55 14.9 12.64 12.95 C 12.27 13.1 11.73 13.1 11.36 12.95 Z" /><circle id="app-icon-pen-node" data-name="Pen Round Node" fill="#3b82f6" stroke="none" stroke-width="2" cx="12" cy="11.945" r="1.65" /></svg>